<svg xmlns:xlink="http://www.w3.org/1999/xlink"  viewBox="0 0 276 76" fill="none" xmlns="http://www.w3.org/2000/svg"><path fill-rule="evenodd" clip-rule="evenodd" d="M26.7417 69.7935V48.0652C26.7417 45.7503 27.2675 43.5552 28.2036 41.5899C26.2389 42.5259 24.0423 43.0509 21.7283 43.0509L0 43.0516V32.9474H21.7283C23.0991 32.9474 24.351 32.3808 25.2634 31.4691C26.1752 30.5575 26.7417 29.3048 26.7417 27.9341V6.20557H36.8461V27.9341C36.8453 30.248 36.3203 32.4439 35.3842 34.4085C37.3489 33.4724 39.5455 32.9474 41.8594 32.9474H63.5878V43.0516H41.8594C40.4887 43.0516 39.2353 43.6183 38.3236 44.5292C37.4126 45.441 36.8461 46.6943 36.8467 48.0659V69.7943L26.7417 69.7935Z" fill="#0D34B4"></path><path fill-rule="evenodd" clip-rule="evenodd" d="M12.8855 11.9448L28.2493 27.3086C31.1826 30.2419 32.6503 34.1142 32.6513 37.9863V38.0137C32.6503 41.8859 31.1826 45.7582 28.2493 48.6915L12.8855 64.0551L5.73877 56.9084L21.1026 41.5446C22.0794 40.5678 22.5706 39.2824 22.5737 38.0002C22.5706 36.7178 22.0794 35.4326 21.1026 34.4557L5.73877 19.092L12.8855 11.9448Z" fill="url(#paint0_linear_251_1615)"></path><path fill-rule="evenodd" clip-rule="evenodd" d="M25.827 30.9375C25.827 35.9056 23.3892 40.3046 19.6442 43.0025L19.5942 43.0525L5.73926 56.9088L12.8854 64.0549L26.7417 50.1999L28.2499 48.6917C29.8897 47.052 31.0711 45.1199 31.7942 43.0581C32.3657 41.4305 32.6513 39.7223 32.6513 38.0133V37.9865C32.6513 36.2776 32.3656 34.5694 31.7942 32.9417C31.0711 30.8799 29.8897 28.948 28.2499 27.3081L26.7411 25.7993L22.4705 21.5293C24.5418 24.0591 25.795 27.285 25.8262 30.8024C25.827 30.8472 25.827 30.8927 25.827 30.9372V30.9375Z" fill="url(#paint1_linear_251_1615)"></path><path fill-rule="evenodd" clip-rule="evenodd" d="M25.827 30.9375C25.827 35.9056 23.3892 40.3046 19.6442 43.0025L19.5942 43.0525L5.73926 56.9088L12.8854 64.0549L26.7417 50.1999L28.2499 48.6917C29.8897 47.052 31.0711 45.1199 31.7942 43.0581C32.3657 41.4305 32.6513 39.7223 32.6513 38.0133V37.9865C32.6513 36.2776 32.3656 34.5694 31.7942 32.9417C31.0711 30.8799 29.8897 28.948 28.2499 27.3081L26.7411 25.7993L22.4705 21.5293C24.5418 24.0591 25.795 27.285 25.8262 30.8024C25.827 30.8472 25.827 30.8927 25.827 30.9372V30.9375Z" fill="url(#paint2_linear_251_1615)"></path><path fill-rule="evenodd" clip-rule="evenodd" d="M39.3958 52.7494L50.7021 64.0555L57.8488 56.9085L42.485 41.5447C41.5082 40.5678 41.017 39.2826 41.0138 38.0003C41.017 36.718 41.5082 35.4327 42.485 34.4557L43.9422 32.9985C40.1981 35.6966 37.7611 40.0952 37.7611 45.0624C37.7611 45.1072 37.7611 45.1528 37.7617 45.1975C37.7931 48.715 39.0461 51.941 41.1174 54.4707L39.3958 52.7494Z" fill="url(#paint3_linear_251_1615)"></path><path fill-rule="evenodd" clip-rule="evenodd" d="M37.7612 45.0621C37.7612 40.0942 40.1988 35.695 43.9438 32.9971L43.9937 32.9471L57.8487 19.091L50.7026 11.9448L36.8463 25.7998L35.3382 27.308C33.6983 28.9478 32.5169 30.8797 31.7939 32.9417C31.2223 34.5693 30.9366 36.2775 30.9366 37.9863V38.0132C30.9366 39.722 31.2224 41.4304 31.7939 43.058C32.5169 45.1197 33.6983 47.0517 35.3382 48.6917L36.847 50.2005L41.1174 54.4703C39.0461 51.9407 37.7932 48.7146 37.7618 45.1972C37.7612 45.1524 37.7612 45.1068 37.7612 45.0621Z" fill="url(#paint4_linear_251_1615)"></path><path fill-rule="evenodd" clip-rule="evenodd" d="M231.412 0.128489L231.412 39.8714H252.766C264.872 39.8714 274.328 31.7937 274.328 20.0739C274.328 8.46516 264.872 0.128506 252.767 0.128489H231.412ZM240.607 32.0377V8.09731C240.607 8.09731 248.018 8.09731 252.767 8.09731C258.685 8.09731 265.218 12.9251 265.218 20.1178C265.218 28.6778 258.641 32.0377 252.767 32.0377C248.018 32.0377 240.607 32.0377 240.607 32.0377Z" fill="#0D34B4"></path><path d="M127.318 39.8713H136.527V14.6768L149.614 39.8713H158.965L171.192 14.6768V39.8713H180.393V0.128418H169.302L154.289 30.8965L138.458 0.128418H127.318V39.8713Z" fill="#0D34B4"></path><path d="M185.549 0.128489L226.68 0.128418V7.48947H194.744V15.7018H222.096V22.9733H194.744V32.8847H226.68V39.8714L185.549 39.8713V0.128489Z" fill="#0D34B4"></path><path fill-rule="evenodd" clip-rule="evenodd" d="M79.5878 0.128539V39.8713H100.942C113.048 39.8713 122.504 31.7937 122.504 20.0739C122.504 8.46521 113.048 0.128555 100.942 0.128539H79.5878ZM88.7825 32.0377V8.09736C88.7825 8.09736 96.1936 8.09736 100.942 8.09736C106.861 8.09736 113.394 12.9252 113.394 20.1178C113.394 28.6779 106.817 32.0377 100.942 32.0377C96.1936 32.0377 88.7825 32.0377 88.7825 32.0377Z" fill="#0D34B4"></path><path d="M88.5764 71.8713H81.3577V51.5077H88.6361C90.6844 51.5077 92.4476 51.9154 93.9258 52.7307C95.4041 53.5394 96.5409 54.7028 97.3363 56.2208C98.1384 57.7388 98.5395 59.555 98.5395 61.6696C98.5395 63.7908 98.1384 65.6138 97.3363 67.1384C96.5409 68.663 95.3974 69.833 93.906 70.6483C92.4211 71.4637 90.6446 71.8713 88.5764 71.8713ZM85.6631 68.1824H88.3974C89.6702 68.1824 90.7407 67.957 91.6091 67.5063C92.4841 67.0489 93.1403 66.3429 93.5778 65.3884C94.022 64.4272 94.244 63.1876 94.244 61.6696C94.244 60.1649 94.022 58.9353 93.5778 57.9807C93.1403 57.0262 92.4874 56.3235 91.619 55.8728C90.7506 55.422 89.6801 55.1966 88.4074 55.1966H85.6631V68.1824ZM108.55 72.1696C107.005 72.1696 105.67 71.8415 104.543 71.1853C103.422 70.5224 102.557 69.601 101.947 68.4211C101.338 67.2345 101.033 65.859 101.033 64.2946C101.033 62.717 101.338 61.3382 101.947 60.1583C102.557 58.9717 103.422 58.0503 104.543 57.3941C105.67 56.7312 107.005 56.3997 108.55 56.3997C110.094 56.3997 111.427 56.7312 112.547 57.3941C113.674 58.0503 114.542 58.9717 115.152 60.1583C115.762 61.3382 116.067 62.717 116.067 64.2946C116.067 65.859 115.762 67.2345 115.152 68.4211C114.542 69.601 113.674 70.5224 112.547 71.1853C111.427 71.8415 110.094 72.1696 108.55 72.1696ZM108.57 68.8884C109.272 68.8884 109.859 68.6895 110.33 68.2918C110.8 67.8874 111.155 67.3372 111.394 66.6412C111.639 65.9452 111.761 65.1531 111.761 64.2648C111.761 63.3765 111.639 62.5844 111.394 61.8884C111.155 61.1924 110.8 60.6422 110.33 60.2378C109.859 59.8335 109.272 59.6313 108.57 59.6313C107.86 59.6313 107.264 59.8335 106.78 60.2378C106.303 60.6422 105.941 61.1924 105.696 61.8884C105.457 62.5844 105.338 63.3765 105.338 64.2648C105.338 65.1531 105.457 65.9452 105.696 66.6412C105.941 67.3372 106.303 67.8874 106.78 68.2918C107.264 68.6895 107.86 68.8884 108.57 68.8884ZM125.722 72.1696C124.157 72.1696 122.812 71.8382 121.685 71.1753C120.564 70.5058 119.703 69.5778 119.099 68.3912C118.503 67.2047 118.205 65.8391 118.205 64.2946C118.205 62.7302 118.506 61.3581 119.109 60.1782C119.719 58.9916 120.584 58.0669 121.705 57.404C122.825 56.7345 124.157 56.3997 125.702 56.3997C127.034 56.3997 128.201 56.6417 129.202 57.1256C130.203 57.6095 130.995 58.289 131.578 59.164C132.162 60.039 132.483 61.0664 132.543 62.2463H128.546C128.433 61.484 128.135 60.8709 127.651 60.4068C127.173 59.9362 126.547 59.7009 125.771 59.7009C125.115 59.7009 124.542 59.8799 124.051 60.2378C123.567 60.5891 123.189 61.1029 122.918 61.779C122.646 62.4551 122.51 63.2738 122.51 64.235C122.51 65.2094 122.643 66.038 122.908 66.7208C123.18 67.4035 123.561 67.9239 124.051 68.2818C124.542 68.6398 125.115 68.8188 125.771 68.8188C126.255 68.8188 126.689 68.7193 127.074 68.5205C127.465 68.3216 127.787 68.0333 128.038 67.6554C128.297 67.271 128.466 66.8103 128.546 66.2733H132.543C132.476 67.44 132.158 68.4675 131.588 69.3557C131.025 70.2373 130.246 70.9267 129.251 71.4239C128.257 71.9211 127.081 72.1696 125.722 72.1696ZM145.049 65.3685V56.5986H149.285V71.8713H145.218V69.0972H145.059C144.714 69.9921 144.141 70.7113 143.338 71.2549C142.543 71.7984 141.572 72.0702 140.425 72.0702C139.404 72.0702 138.506 71.8382 137.731 71.3742C136.955 70.9102 136.348 70.2506 135.911 69.3955C135.48 68.5404 135.261 67.5162 135.255 66.323V56.5986H139.49V65.5674C139.497 66.4689 139.739 67.1815 140.216 67.7051C140.694 68.2288 141.333 68.4907 142.135 68.4907C142.646 68.4907 143.123 68.3747 143.567 68.1426C144.011 67.904 144.369 67.5527 144.641 67.0887C144.919 66.6247 145.055 66.0513 145.049 65.3685ZM152.673 71.8713V56.5986H156.71V59.2932H156.889C157.207 58.3983 157.737 57.6924 158.479 57.1753C159.222 56.6583 160.11 56.3997 161.144 56.3997C162.192 56.3997 163.083 56.6616 163.819 57.1853C164.555 57.7023 165.045 58.405 165.291 59.2932H165.45C165.761 58.4182 166.325 57.7189 167.14 57.1952C167.962 56.6649 168.933 56.3997 170.053 56.3997C171.479 56.3997 172.635 56.8538 173.523 57.762C174.418 58.6635 174.866 59.9428 174.866 61.6V71.8713H170.64V62.4353C170.64 61.5868 170.415 60.9504 169.964 60.5262C169.513 60.1019 168.95 59.8898 168.273 59.8898C167.505 59.8898 166.905 60.1351 166.474 60.6256C166.043 61.1095 165.827 61.7492 165.827 62.5446V71.8713H161.721V62.3458C161.721 61.5967 161.506 61.0001 161.075 60.556C160.65 60.1119 160.09 59.8898 159.394 59.8898C158.924 59.8898 158.499 60.0091 158.122 60.2478C157.75 60.4798 157.455 60.8079 157.237 61.2321C157.018 61.6497 156.908 62.1403 156.908 62.7037V71.8713H152.673ZM185.172 72.1696C183.601 72.1696 182.249 71.8515 181.115 71.2151C179.988 70.5721 179.12 69.664 178.51 68.4907C177.9 67.3107 177.595 65.9154 177.595 64.3046C177.595 62.7336 177.9 61.3548 178.51 60.1682C179.12 58.9817 179.978 58.0569 181.085 57.3941C182.199 56.7312 183.505 56.3997 185.003 56.3997C186.01 56.3997 186.948 56.5622 187.817 56.887C188.692 57.2051 189.454 57.6857 190.104 58.3287C190.76 58.9717 191.27 59.7804 191.635 60.7549C192 61.7227 192.182 62.8562 192.182 64.1554V65.3188H179.286V62.6938H188.195C188.195 62.0839 188.062 61.5437 187.797 61.073C187.532 60.6024 187.164 60.2345 186.693 59.9693C186.229 59.6976 185.689 59.5617 185.072 59.5617C184.43 59.5617 183.859 59.7108 183.362 60.0091C182.872 60.3008 182.487 60.6952 182.209 61.1924C181.93 61.6829 181.788 62.2298 181.781 62.833V65.3287C181.781 66.0844 181.921 66.7373 182.199 67.2875C182.484 67.8377 182.885 68.262 183.402 68.5603C183.919 68.8586 184.532 69.0077 185.242 69.0077C185.712 69.0077 186.143 68.9414 186.534 68.8088C186.925 68.6763 187.26 68.4774 187.538 68.2122C187.817 67.9471 188.029 67.6223 188.175 67.2378L192.092 67.4963C191.894 68.4376 191.486 69.2596 190.869 69.9622C190.26 70.6583 189.471 71.2018 188.503 71.5929C187.542 71.9774 186.431 72.1696 185.172 72.1696ZM199.182 63.0418V71.8713H194.946V56.5986H198.983V59.2932H199.162C199.5 58.405 200.067 57.7023 200.862 57.1853C201.658 56.6616 202.622 56.3997 203.756 56.3997C204.816 56.3997 205.741 56.6318 206.53 57.0958C207.319 57.5598 207.932 58.2227 208.369 59.0844C208.807 59.9395 209.026 60.9604 209.026 62.1469V71.8713H204.79V62.9026C204.796 61.9679 204.558 61.2388 204.074 60.7151C203.59 60.1848 202.924 59.9196 202.075 59.9196C201.505 59.9196 201.001 60.0423 200.564 60.2875C200.133 60.5328 199.795 60.8908 199.55 61.3614C199.311 61.8254 199.189 62.3855 199.182 63.0418ZM220.488 56.5986V59.7804H211.29V56.5986H220.488ZM213.378 52.9395H217.614V67.1782C217.614 67.5693 217.674 67.8742 217.793 68.0929C217.912 68.305 218.078 68.4542 218.29 68.5404C218.509 68.6265 218.761 68.6696 219.046 68.6696C219.245 68.6696 219.444 68.6531 219.642 68.6199C219.841 68.5801 219.994 68.5503 220.1 68.5304L220.766 71.6824C220.554 71.7487 220.256 71.8249 219.871 71.9111C219.487 72.0039 219.019 72.0603 218.469 72.0801C217.448 72.1199 216.553 71.984 215.785 71.6725C215.022 71.3609 214.429 70.877 214.005 70.2208C213.58 69.5645 213.372 68.7359 213.378 67.735V52.9395ZM235.763 60.9537L231.885 61.1924C231.819 60.8609 231.676 60.5626 231.457 60.2975C231.239 60.0257 230.95 59.8103 230.592 59.6512C230.241 59.4854 229.82 59.4026 229.33 59.4026C228.673 59.4026 228.12 59.5418 227.669 59.8202C227.218 60.092 226.993 60.4566 226.993 60.914C226.993 61.2785 227.139 61.5868 227.43 61.8387C227.722 62.0906 228.223 62.2927 228.932 62.4452L231.696 63.002C233.181 63.3069 234.288 63.7975 235.017 64.4736C235.746 65.1497 236.111 66.038 236.111 67.1384C236.111 68.1393 235.816 69.0176 235.226 69.7733C234.643 70.529 233.84 71.119 232.82 71.5432C231.805 71.9608 230.635 72.1696 229.31 72.1696C227.288 72.1696 225.677 71.7487 224.477 70.9068C223.284 70.0584 222.585 68.905 222.379 67.4466L226.546 67.2279C226.671 67.8443 226.976 68.315 227.46 68.6398C227.944 68.958 228.564 69.1171 229.32 69.1171C230.062 69.1171 230.659 68.9746 231.109 68.6895C231.567 68.3979 231.799 68.0233 231.805 67.5659C231.799 67.1815 231.636 66.8666 231.318 66.6213C231 66.3694 230.51 66.1772 229.847 66.0446L227.202 65.5176C225.71 65.2193 224.6 64.7023 223.871 63.9665C223.148 63.2307 222.787 62.2927 222.787 61.1526C222.787 60.1715 223.052 59.3264 223.582 58.6171C224.119 57.9078 224.872 57.3609 225.84 56.9765C226.814 56.592 227.954 56.3997 229.26 56.3997C231.189 56.3997 232.707 56.8074 233.814 57.6228C234.928 58.4381 235.577 59.5484 235.763 60.9537Z" fill="#008BFF"></path><defs><linearGradient id="paint0_linear_251_1615" x1="1.07015" y1="18.7944" x2="26.7239" y2="47.2765" gradientUnits="userSpaceOnUse"><stop stop-color="#008BFF"></stop><stop offset="1" stop-color="#5FFFEC"></stop></linearGradient><linearGradient id="paint1_linear_251_1615" x1="5.16892" y1="49.4433" x2="28.4263" y2="23.7746" gradientUnits="userSpaceOnUse"><stop stop-color="#008BFF"></stop><stop offset="1" stop-color="#5FFFEC"></stop></linearGradient><linearGradient id="paint2_linear_251_1615" x1="5.16892" y1="49.4433" x2="28.4263" y2="23.7746" gradientUnits="userSpaceOnUse"><stop stop-color="#5FFFEC"></stop><stop offset="1" stop-color="#008BFF"></stop></linearGradient><linearGradient id="paint3_linear_251_1615" x1="39.743" y1="36.8642" x2="46.8513" y2="63.2931" gradientUnits="userSpaceOnUse"><stop stop-color="#5FFFEC"></stop><stop offset="1" stop-color="#008BFF"></stop></linearGradient><linearGradient id="paint4_linear_251_1615" x1="30.3663" y1="39.8588" x2="53.6236" y2="14.19" gradientUnits="userSpaceOnUse"><stop stop-color="#008BFF"></stop><stop offset="1" stop-color="#5FFFEC"></stop></linearGradient></defs></svg>